<svg width="41.000000" height="41.000000" viewBox="0 0 41 41" fill="none" xmlns="http://www.w3.org/2000/svg" xmlns:xlink="http://www.w3.org/1999/xlink">
	<desc>
			Created with Pixso.
	</desc>
	<defs>
		<clipPath id="clip5_3">
			<rect id="фрейм 1" width="41.000000" height="41.000000" fill="white" fill-opacity="0"/>
		</clipPath>
	</defs>
	<rect id="фрейм 1" width="41.000000" height="41.000000" fill="#252838" fill-opacity="1.000000"/>
	<g clip-path="url(#clip5_3)">
		<rect id="cinema 2" rx="0.000000" width="23.000000" height="23.000000" transform="translate(3.500000 20.500000)" fill="#3657CB" fill-opacity="0"/>
		<path id="XMLID 1469" d="M22.68 13.19C22.68 11.27 21.16 9.7 19.29 9.7C17.41 9.7 15.89 11.27 15.89 13.19C15.89 15.11 17.41 16.67 19.29 16.67C21.16 16.67 22.68 15.11 22.68 13.19ZM17.15 13.19C17.15 11.98 18.11 10.99 19.29 10.99C20.47 10.99 21.42 11.98 21.42 13.19C21.42 14.4 20.47 15.38 19.29 15.38C18.11 15.38 17.15 14.4 17.15 13.19Z" fill="#FFFFFF" fill-opacity="1.000000" fill-rule="nonzero"/>
		<path id="XMLID 1605" d="M13.8 21.53C14.6 21.11 15.2 20.39 15.48 19.5C15.76 18.62 15.69 17.67 15.28 16.84C14.87 16.02 14.16 15.4 13.3 15.11C12.44 14.83 11.52 14.9 10.71 15.32C9.9 15.74 9.3 16.46 9.02 17.35C8.74 18.23 8.82 19.18 9.23 20.01C9.64 20.83 10.34 21.45 11.2 21.74C11.55 21.85 11.9 21.91 12.26 21.91C12.79 21.91 13.31 21.78 13.8 21.53ZM11.59 20.51C11.05 20.33 10.61 19.94 10.35 19.42C10.09 18.9 10.04 18.3 10.22 17.75C10.4 17.19 10.77 16.74 11.28 16.47C11.59 16.31 11.92 16.23 12.25 16.23C12.47 16.23 12.7 16.27 12.91 16.34C13.46 16.52 13.9 16.91 14.16 17.43C14.42 17.95 14.46 18.55 14.29 19.1C14.11 19.66 13.73 20.11 13.22 20.38C12.72 20.64 12.14 20.69 11.59 20.51Z" fill="#FFFFFF" fill-opacity="1.000000" fill-rule="nonzero"/>
		<path id="XMLID 1609" d="M12.94 29.72C13.54 30.17 14.24 30.38 14.93 30.38C15.99 30.38 17.02 29.88 17.69 28.95C18.22 28.19 18.44 27.27 18.29 26.35C18.15 25.44 17.67 24.63 16.93 24.08C16.2 23.54 15.3 23.31 14.41 23.46C13.51 23.61 12.72 24.1 12.19 24.85C11.09 26.41 11.42 28.59 12.94 29.72ZM13.21 25.61C13.54 25.14 14.04 24.83 14.6 24.73C14.72 24.72 14.83 24.71 14.94 24.71C15.39 24.71 15.83 24.85 16.2 25.13C17.15 25.84 17.36 27.21 16.67 28.19C15.98 29.17 14.64 29.39 13.68 28.67C12.73 27.96 12.51 26.59 13.21 25.61Z" fill="#FFFFFF" fill-opacity="1.000000" fill-rule="nonzero"/>
		<path id="XMLID 1659" d="M23.63 30.38C24.33 30.38 25.02 30.17 25.63 29.72C27.14 28.59 27.48 26.41 26.38 24.85C25.84 24.1 25.06 23.6 24.16 23.46C23.26 23.31 22.37 23.54 21.63 24.08C20.9 24.63 20.42 25.44 20.27 26.35C20.13 27.27 20.35 28.19 20.88 28.95C21.55 29.88 22.58 30.38 23.63 30.38ZM22.37 25.13C22.83 24.78 23.4 24.64 23.96 24.73C24.53 24.83 25.02 25.14 25.36 25.61C26.05 26.59 25.84 27.96 24.89 28.67C23.93 29.38 22.59 29.17 21.9 28.19C21.21 27.21 21.42 25.84 22.37 25.13Z" fill="#FFFFFF" fill-opacity="1.000000" fill-rule="nonzero"/>
		<path id="XMLID 1678" d="M25.27 15.11C24.4 15.4 23.7 16.01 23.29 16.84C22.88 17.67 22.8 18.62 23.08 19.5C23.37 20.39 23.97 21.11 24.77 21.53C25.26 21.78 25.78 21.91 26.31 21.91C26.66 21.91 27.02 21.85 27.37 21.74C28.23 21.45 28.93 20.83 29.34 20.01C29.75 19.18 29.83 18.23 29.55 17.35C29.27 16.46 28.67 15.74 27.86 15.32C27.05 14.9 26.13 14.83 25.27 15.11ZM27.29 16.47C27.8 16.74 28.17 17.19 28.35 17.75C28.53 18.3 28.48 18.9 28.22 19.42C27.96 19.94 27.52 20.33 26.98 20.51C26.43 20.69 25.85 20.64 25.34 20.38C24.83 20.11 24.46 19.66 24.28 19.1C24.1 18.55 24.15 17.95 24.41 17.43C24.67 16.91 25.11 16.52 25.66 16.34C25.87 16.27 26.09 16.23 26.32 16.23C26.65 16.23 26.98 16.31 27.29 16.47Z" fill="#FFFFFF" fill-opacity="1.000000" fill-rule="nonzero"/>
		<path id="XMLID 1713" d="M21.44 20.77C21.44 19.55 20.47 18.56 19.28 18.56C18.09 18.56 17.13 19.55 17.13 20.77C17.13 21.99 18.09 22.98 19.28 22.98C20.47 22.98 21.44 21.99 21.44 20.77ZM18.38 20.77C18.38 20.26 18.79 19.85 19.28 19.85C19.78 19.85 20.18 20.26 20.18 20.77C20.18 21.28 19.78 21.69 19.28 21.69C18.79 21.69 18.38 21.28 18.38 20.77Z" fill="#FFFFFF" fill-opacity="1.000000" fill-rule="nonzero"/>
		<path id="XMLID 1768" d="M36.91 32.75C36.19 32.02 35.25 31.62 34.24 31.62C33.24 31.62 32.29 32.02 31.58 32.75C30.64 33.72 29.38 34.25 28.05 34.25L25.19 34.25C26.76 33.52 28.22 32.5 29.47 31.21C32.19 28.42 33.69 24.71 33.69 20.77C33.69 17.88 32.88 15.08 31.34 12.68C31.15 12.38 30.76 12.3 30.47 12.5C30.18 12.69 30.1 13.09 30.29 13.39C31.69 15.58 32.43 18.13 32.43 20.77C32.43 28.2 26.54 34.25 19.28 34.25C12.03 34.25 6.13 28.2 6.13 20.77C6.13 13.33 12.03 7.29 19.28 7.29C21.86 7.29 24.35 8.05 26.49 9.49C26.78 9.68 27.17 9.6 27.36 9.3C27.55 9.01 27.47 8.61 27.18 8.41C24.83 6.83 22.1 6 19.28 6C15.44 6 11.82 7.53 9.1 10.32C6.37 13.11 4.88 16.82 4.88 20.77C4.88 24.71 6.37 28.42 9.1 31.21C11.82 34 15.44 35.54 19.28 35.54L28.05 35.54C29.72 35.54 31.29 34.87 32.47 33.66C32.94 33.18 33.57 32.91 34.24 32.91C34.91 32.91 35.54 33.18 36.02 33.66C36.26 33.91 36.66 33.91 36.91 33.66C37.15 33.41 37.15 33 36.91 32.75Z" fill="#FFFFFF" fill-opacity="1.000000" fill-rule="nonzero"/>
		<path id="XMLID 1769" d="M29.03 11.43C29.2 11.43 29.36 11.36 29.48 11.24C29.59 11.12 29.66 10.95 29.66 10.78C29.66 10.61 29.59 10.45 29.48 10.33C29.36 10.21 29.2 10.14 29.03 10.14C28.87 10.14 28.7 10.21 28.59 10.33C28.47 10.45 28.4 10.61 28.4 10.78C28.4 10.95 28.47 11.12 28.59 11.24C28.7 11.36 28.87 11.43 29.03 11.43Z" fill="#FFFFFF" fill-opacity="1.000000" fill-rule="nonzero"/>
	</g>
</svg>
