<svg width="94.000000" height="24.000000" viewBox="0 0 94 24" fill="none" xmlns="http://www.w3.org/2000/svg" xmlns:xlink="http://www.w3.org/1999/xlink">
	<desc>
			Created with Pixso.
	</desc>
	<defs>
		<clipPath id="clip81_307">
			<rect id="cinema 1" rx="0.000000" width="14.000000" height="14.000000" transform="translate(0.500000 5.500000)" fill="white" fill-opacity="0"/>
		</clipPath>
	</defs>
	<path id="Kinoarea" d="M26.43 18.79L29.89 18.79L25.22 11.97L29.7 5.49L26.24 5.49L22.18 11.26L22.18 5.49L19.14 5.49L19.14 18.79L22.18 18.79L22.18 12.63L26.43 18.79ZM30.93 5.49L30.93 8.15L33.78 8.15L33.78 5.49L30.93 5.49ZM43.37 10.03C42.82 9.36 42.09 9.02 41.19 9.02Q39.89 9.02 39.15 9.66Q38.9 9.88 38.72 10.16L38.72 9.29L35.87 9.29L35.87 18.79L38.72 18.79L38.72 13.24Q38.72 12.33 39.17 11.94Q39.51 11.64 40.11 11.64C40.49 11.64 40.79 11.76 41.02 11.99C41.26 12.21 41.38 12.56 41.38 13.01L41.38 18.79L44.23 18.79L44.23 12.76Q44.23 11.02 43.37 10.03ZM50.63 19.05C52.04 19.05 53.23 18.57 54.21 17.61C55.18 16.63 55.67 15.44 55.67 14.04C55.67 12.63 55.18 11.45 54.21 10.48C53.23 9.51 52.04 9.02 50.63 9.02Q49.51 9.02 48.57 9.44Q47.75 9.8 47.06 10.48Q46.39 11.14 46.03 11.94Q45.6 12.89 45.6 14.04Q45.6 15.16 46.01 16.1Q46.38 16.93 47.06 17.61C48.04 18.57 49.23 19.05 50.63 19.05ZM30.93 9.29L30.93 18.79L33.78 18.79L33.78 9.29L30.93 9.29ZM49.65 16.07Q49.34 15.91 49.08 15.65C48.66 15.23 48.45 14.7 48.45 14.04C48.45 13.38 48.66 12.84 49.08 12.42C49.49 12 50.01 11.8 50.63 11.8C51.25 11.8 51.77 12 52.19 12.42C52.61 12.84 52.82 13.38 52.82 14.04Q52.82 14.71 52.53 15.22Q52.39 15.45 52.19 15.65C51.77 16.07 51.25 16.28 50.63 16.28Q50.09 16.28 49.65 16.07Z" fill="#3657CB" fill-opacity="1.000000" fill-rule="evenodd"/>
	<path id="Kinoarea" d="M61.21 9.02C60.1 9.02 59.16 9.34 58.4 9.97C57.64 10.6 57.26 11.49 57.26 12.61L60.04 12.61C60.04 12.32 60.14 12.09 60.34 11.91C60.54 11.73 60.83 11.64 61.21 11.64Q61.72 11.64 62.01 11.9Q62.39 12.23 62.39 12.99L62.39 13.85C61.75 13.37 60.93 13.13 59.94 13.13Q59 13.13 58.26 13.52Q57.96 13.68 57.7 13.9C57.1 14.42 56.81 15.15 56.81 16.09C56.81 17.03 57.1 17.76 57.7 18.27C58.31 18.79 59.05 19.05 59.94 19.05C60.99 19.05 61.81 18.72 62.39 18.05L62.39 18.79L65.17 18.79L65.17 12.8C65.17 11.59 64.79 10.66 64.03 10.01C63.27 9.35 62.33 9.02 61.21 9.02ZM78.1 16.75C76.93 16.75 76.19 16.23 75.88 15.18L82.66 15.18C82.74 14.82 82.77 14.44 82.77 14.04C82.77 12.59 82.32 11.4 81.41 10.45C80.51 9.5 79.37 9.02 77.99 9.02Q76.56 9.02 75.45 9.62Q74.83 9.95 74.32 10.47C73.37 11.42 72.89 12.61 72.89 14.04C72.89 15.48 73.37 16.68 74.32 17.63C75.27 18.58 76.52 19.05 78.06 19.05C79.15 19.05 80.09 18.79 80.87 18.27C81.66 17.76 82.2 17 82.51 16.01L79.73 16.03C79.59 16.25 79.37 16.43 79.07 16.56C78.76 16.69 78.44 16.75 78.1 16.75ZM86.08 9.56Q85.76 9.73 85.47 9.97C84.71 10.6 84.33 11.49 84.33 12.61L87.11 12.61C87.11 12.32 87.21 12.09 87.41 11.91C87.61 11.73 87.91 11.64 88.29 11.64C89.07 11.64 89.46 12.09 89.46 12.99L89.46 13.85C88.82 13.37 88 13.13 87.01 13.13C86.13 13.13 85.38 13.39 84.77 13.9C84.18 14.42 83.88 15.15 83.88 16.09C83.88 17.03 84.18 17.76 84.77 18.27C85.38 18.79 86.13 19.05 87.01 19.05C88.06 19.05 88.88 18.72 89.46 18.05L89.46 18.79L92.24 18.79L92.24 12.8C92.24 11.59 91.86 10.66 91.1 10.01C90.34 9.35 89.4 9.02 88.29 9.02Q87.03 9.02 86.08 9.56ZM70.75 9.53C70.3 9.83 70.01 10.24 69.85 10.79L69.85 9.29L67 9.29L67 18.79L69.85 18.79L69.85 14.3C69.85 13.52 70.1 12.97 70.59 12.65C71.09 12.33 71.67 12.23 72.32 12.33L72.32 9.1C71.72 9.1 71.19 9.24 70.75 9.53ZM79.94 13.01L75.86 13.01C76.17 12.04 76.88 11.55 77.97 11.55C79 11.55 79.66 12.04 79.94 13.01ZM62.01 16.77C61.76 16.95 61.4 17.04 60.95 17.04C60.53 17.04 60.21 16.96 59.98 16.79C59.76 16.62 59.66 16.38 59.66 16.09C59.66 15.8 59.76 15.57 59.98 15.41C60.21 15.23 60.53 15.14 60.95 15.14C61.4 15.14 61.76 15.23 62.01 15.41C62.27 15.57 62.39 15.8 62.39 16.09C62.39 16.37 62.27 16.6 62.01 16.77ZM89.08 16.77C88.83 16.95 88.48 17.04 88.02 17.04Q87.39 17.04 87.05 16.79C86.84 16.62 86.73 16.38 86.73 16.09C86.73 15.8 86.84 15.57 87.05 15.41C87.28 15.23 87.6 15.14 88.02 15.14Q88.7 15.14 89.08 15.41C89.34 15.57 89.46 15.8 89.46 16.09C89.46 16.37 89.34 16.6 89.08 16.77Z" fill="#FFFFFF" fill-opacity="1.000000" fill-rule="evenodd"/>
	<rect id="cinema 1" rx="0.000000" width="14.000000" height="14.000000" transform="translate(0.500000 5.500000)" fill="#3657CB" fill-opacity="0"/>
	<g clip-path="url(#clip81_307)">
		<path id="XMLID 1469" d="M8.29 9.05C8.29 8.18 7.58 7.47 6.7 7.47C5.83 7.47 5.12 8.18 5.12 9.05C5.12 9.92 5.83 10.63 6.7 10.63C7.58 10.63 8.29 9.92 8.29 9.05ZM5.71 9.05C5.71 8.5 6.16 8.06 6.7 8.06C7.25 8.06 7.7 8.5 7.7 9.05C7.7 9.6 7.25 10.05 6.7 10.05C6.16 10.05 5.71 9.6 5.71 9.05Z" fill="#FFFFFF" fill-opacity="1.000000" fill-rule="nonzero"/>
		<path id="XMLID 1605" d="M4.15 12.84C4.52 12.65 4.8 12.32 4.93 11.92C5.06 11.52 5.03 11.09 4.84 10.71C4.65 10.34 4.32 10.06 3.92 9.93C3.52 9.8 3.09 9.83 2.71 10.02C2.34 10.21 2.06 10.54 1.93 10.94C1.79 11.34 1.83 11.77 2.02 12.15C2.21 12.53 2.54 12.8 2.94 12.94C3.1 12.99 3.27 13.01 3.43 13.01C3.68 13.01 3.92 12.96 4.15 12.84ZM3.12 12.38C2.87 12.3 2.66 12.12 2.54 11.88C2.42 11.65 2.4 11.38 2.48 11.12C2.57 10.87 2.74 10.66 2.98 10.54C3.12 10.47 3.27 10.43 3.43 10.43C3.53 10.43 3.64 10.45 3.74 10.48C3.99 10.57 4.2 10.74 4.32 10.98C4.44 11.22 4.46 11.49 4.38 11.74C4.29 11.99 4.12 12.2 3.88 12.32C3.65 12.44 3.37 12.46 3.12 12.38Z" fill="#FFFFFF" fill-opacity="1.000000" fill-rule="nonzero"/>
		<path id="XMLID 1609" d="M3.75 16.56C4.03 16.76 4.36 16.86 4.68 16.86C5.17 16.86 5.65 16.64 5.96 16.21C6.21 15.87 6.31 15.45 6.24 15.03C6.18 14.62 5.95 14.25 5.61 14C5.27 13.75 4.85 13.65 4.43 13.72C4.01 13.78 3.65 14.01 3.4 14.35C2.89 15.06 3.04 16.05 3.75 16.56ZM3.87 14.7C4.03 14.48 4.26 14.34 4.52 14.3C4.58 14.29 4.63 14.28 4.68 14.28C4.89 14.28 5.09 14.35 5.27 14.47C5.71 14.8 5.81 15.42 5.49 15.87C5.16 16.31 4.54 16.41 4.09 16.09C3.65 15.76 3.55 15.14 3.87 14.7Z" fill="#FFFFFF" fill-opacity="1.000000" fill-rule="nonzero"/>
		<path id="XMLID 1659" d="M8.73 16.86C9.05 16.86 9.38 16.76 9.66 16.56C10.36 16.05 10.52 15.06 10.01 14.35C9.76 14.01 9.39 13.78 8.98 13.72C8.56 13.65 8.14 13.75 7.8 14C7.46 14.25 7.23 14.62 7.16 15.03C7.1 15.45 7.2 15.87 7.45 16.21C7.76 16.64 8.24 16.86 8.73 16.86ZM8.14 14.47C8.36 14.32 8.62 14.25 8.88 14.3C9.15 14.34 9.38 14.48 9.53 14.7C9.86 15.14 9.76 15.76 9.31 16.09C8.87 16.41 8.25 16.31 7.92 15.87C7.6 15.42 7.7 14.8 8.14 14.47Z" fill="#FFFFFF" fill-opacity="1.000000" fill-rule="nonzero"/>
		<path id="XMLID 1678" d="M9.49 9.93C9.09 10.06 8.76 10.34 8.57 10.71C8.38 11.09 8.34 11.52 8.47 11.92C8.6 12.32 8.88 12.65 9.26 12.84C9.49 12.96 9.73 13.01 9.98 13.01C10.14 13.01 10.31 12.99 10.47 12.94C10.87 12.8 11.2 12.53 11.39 12.15C11.58 11.77 11.61 11.34 11.48 10.94C11.35 10.54 11.07 10.21 10.7 10.02C10.32 9.83 9.89 9.8 9.49 9.93ZM10.43 10.54C10.67 10.66 10.84 10.87 10.92 11.12C11.01 11.38 10.99 11.65 10.87 11.88C10.74 12.12 10.54 12.3 10.29 12.38C10.03 12.46 9.76 12.44 9.53 12.32C9.29 12.2 9.11 11.99 9.03 11.74C8.95 11.49 8.97 11.22 9.09 10.98C9.21 10.74 9.42 10.57 9.67 10.48C9.77 10.45 9.88 10.43 9.98 10.43C10.13 10.43 10.29 10.47 10.43 10.54Z" fill="#FFFFFF" fill-opacity="1.000000" fill-rule="nonzero"/>
		<path id="XMLID 1713" d="M7.71 12.5C7.71 11.94 7.26 11.49 6.7 11.49C6.15 11.49 5.7 11.94 5.7 12.5C5.7 13.05 6.15 13.5 6.7 13.5C7.26 13.5 7.71 13.05 7.71 12.5ZM6.29 12.5C6.29 12.26 6.47 12.08 6.7 12.08C6.93 12.08 7.12 12.26 7.12 12.5C7.12 12.73 6.93 12.91 6.7 12.91C6.47 12.91 6.29 12.73 6.29 12.5Z" fill="#FFFFFF" fill-opacity="1.000000" fill-rule="nonzero"/>
		<path id="XMLID 1768" d="M14.91 17.94C14.58 17.61 14.14 17.42 13.67 17.42C13.2 17.42 12.76 17.61 12.43 17.94C11.99 18.38 11.41 18.62 10.79 18.62L9.45 18.62C10.19 18.29 10.86 17.82 11.45 17.24C12.71 15.97 13.41 14.29 13.41 12.5C13.41 11.18 13.04 9.91 12.32 8.82C12.23 8.69 12.05 8.65 11.91 8.74C11.78 8.83 11.74 9.01 11.83 9.14C12.48 10.14 12.83 11.3 12.83 12.5C12.83 15.87 10.08 18.62 6.7 18.62C3.33 18.62 0.58 15.87 0.58 12.5C0.58 9.12 3.33 6.37 6.7 6.37C7.9 6.37 9.06 6.72 10.06 7.37C10.2 7.46 10.38 7.42 10.47 7.29C10.55 7.15 10.52 6.97 10.38 6.88C9.29 6.17 8.02 5.79 6.7 5.79C4.91 5.79 3.23 6.48 1.96 7.75C0.69 9.02 0 10.7 0 12.5C0 14.29 0.69 15.97 1.96 17.24C3.23 18.51 4.91 19.2 6.7 19.2L10.79 19.2C11.56 19.2 12.29 18.9 12.84 18.35C13.06 18.13 13.36 18.01 13.67 18.01C13.98 18.01 14.27 18.13 14.5 18.35C14.61 18.47 14.79 18.47 14.91 18.35C15.02 18.24 15.02 18.05 14.91 17.94Z" fill="#FFFFFF" fill-opacity="1.000000" fill-rule="nonzero"/>
		<path id="XMLID 1769" d="M11.24 8.25C11.32 8.25 11.4 8.22 11.45 8.17C11.5 8.11 11.54 8.04 11.54 7.96C11.54 7.88 11.5 7.81 11.45 7.75C11.4 7.7 11.32 7.67 11.24 7.67C11.17 7.67 11.09 7.7 11.04 7.75C10.98 7.81 10.95 7.88 10.95 7.96C10.95 8.04 10.98 8.11 11.04 8.17C11.09 8.22 11.17 8.25 11.24 8.25Z" fill="#FFFFFF" fill-opacity="1.000000" fill-rule="nonzero"/>
	</g>
</svg>
