<svg width="14.000000" height="11.000000" viewBox="0 0 14 11" fill="none" xmlns="http://www.w3.org/2000/svg" xmlns:xlink="http://www.w3.org/1999/xlink">
	<desc>
			Created with Pixso.
	</desc>
	<defs/>
	<path id="Vector" d="M0.5 0C0.22 0 0 0.27 0 0.61C0 0.94 0.22 1.22 0.5 1.22L13.5 1.22C13.77 1.22 14 0.94 14 0.61C14 0.27 13.77 0 13.5 0L0.5 0ZM0 5.5C0 5.16 0.22 4.88 0.5 4.88L13.5 4.88C13.77 4.88 14 5.16 14 5.5C14 5.83 13.77 6.11 13.5 6.11L0.5 6.11C0.22 6.11 0 5.83 0 5.5ZM0 10.38C0 10.05 0.22 9.77 0.5 9.77L13.5 9.77C13.77 9.77 14 10.05 14 10.38C14 10.72 13.77 11 13.5 11L0.5 11C0.22 11 0 10.72 0 10.38Z" fill="#3657CB" fill-opacity="1.000000" fill-rule="evenodd"/>
</svg>
