<svg width="24.000000" height="24.000000" viewBox="0 0 24 24" fill="none" xmlns="http://www.w3.org/2000/svg" xmlns:xlink="http://www.w3.org/1999/xlink">
	<desc>
			Created with Pixso.
	</desc>
	<defs>
		<clipPath id="clip1_1917">
			<rect id="equalizer 1" rx="0.000000" width="23.000000" height="23.000000" transform="translate(0.500000 0.500000)" fill="white" fill-opacity="0"/>
		</clipPath>
	</defs>
	<rect id="equalizer 1" rx="0.000000" width="23.000000" height="23.000000" transform="translate(0.500000 0.500000)" fill="#FFFFFF" fill-opacity="0"/>
	<g clip-path="url(#clip1_1917)">
		<path id="Vector" d="M9.21 19.03C8.69 19.03 8.27 19.45 8.27 19.97L8.27 23.06C8.27 23.58 8.69 24 9.21 24C9.72 24 10.14 23.58 10.14 23.06L10.14 19.97C10.14 19.45 9.72 19.03 9.21 19.03Z" fill="#1E2538" fill-opacity="1.000000" fill-rule="nonzero"/>
		<path id="Vector" d="M11.08 15.28L10.14 15.28L10.14 0.93C10.14 0.41 9.72 0 9.21 0C8.69 0 8.27 0.41 8.27 0.93L8.27 15.28L7.33 15.28C6.81 15.28 6.39 15.7 6.39 16.21C6.39 16.73 6.81 17.15 7.33 17.15L11.08 17.15C11.6 17.15 12.02 16.73 12.02 16.21C12.02 15.7 11.6 15.28 11.08 15.28Z" fill="#1E2538" fill-opacity="1.000000" fill-rule="nonzero"/>
		<path id="Vector" d="M2.83 6.75C2.31 6.75 1.89 7.17 1.89 7.69L1.89 23.06C1.89 23.58 2.31 24 2.83 24C3.35 24 3.77 23.58 3.77 23.06L3.77 7.69C3.77 7.17 3.35 6.75 2.83 6.75Z" fill="#1E2538" fill-opacity="1.000000" fill-rule="nonzero"/>
		<path id="Vector" d="M4.71 3.01L3.77 3.01L3.77 0.93C3.77 0.41 3.35 0 2.83 0C2.31 0 1.89 0.41 1.89 0.93L1.89 3.01L0.96 3.01C0.44 3.01 0.02 3.43 0.02 3.94C0.02 4.46 0.44 4.88 0.96 4.88L4.71 4.88C5.22 4.88 5.64 4.46 5.64 3.94C5.64 3.43 5.22 3.01 4.71 3.01Z" fill="#1E2538" fill-opacity="1.000000" fill-rule="nonzero"/>
		<path id="Vector" d="M21.16 8.02C20.64 8.02 20.22 8.44 20.22 8.96L20.22 23.06C20.22 23.58 20.64 24 21.16 24C21.68 24 22.1 23.58 22.1 23.06L22.1 8.96C22.1 8.44 21.68 8.02 21.16 8.02Z" fill="#1E2538" fill-opacity="1.000000" fill-rule="nonzero"/>
		<path id="Vector" d="M23.03 4.27L22.1 4.27L22.1 0.93C22.1 0.41 21.68 0 21.16 0C20.64 0 20.22 0.41 20.22 0.93L20.22 4.27L19.28 4.27C18.77 4.27 18.35 4.69 18.35 5.2C18.35 5.72 18.77 6.14 19.28 6.14L23.03 6.14C23.55 6.14 23.97 5.72 23.97 5.2C23.97 4.69 23.55 4.27 23.03 4.27Z" fill="#1E2538" fill-opacity="1.000000" fill-rule="nonzero"/>
		<path id="Vector" d="M15.07 14.91C14.55 14.91 14.13 15.33 14.13 15.84L14.13 23.06C14.13 23.58 14.55 24 15.07 24C15.58 24 16 23.58 16 23.06L16 15.84C16 15.33 15.58 14.91 15.07 14.91Z" fill="#1E2538" fill-opacity="1.000000" fill-rule="nonzero"/>
		<path id="Vector" d="M16.94 11.16L16 11.16L16 0.93C16 0.41 15.58 0 15.07 0C14.55 0 14.13 0.41 14.13 0.93L14.13 11.16L13.19 11.16C12.67 11.16 12.25 11.58 12.25 12.1C12.25 12.62 12.67 13.04 13.19 13.04L16.94 13.04C17.46 13.04 17.88 12.62 17.88 12.1C17.88 11.58 17.46 11.16 16.94 11.16Z" fill="#1E2538" fill-opacity="1.000000" fill-rule="nonzero"/>
	</g>
</svg>
